# xmcd
#
# Track frame offsets: 
#        150
#        19590
#        34925
#        53105
#        78103
#        94429
#        108049
#        125439
#        140769
#
# Disc length: 2115 seconds
#
# Revision: 4
# Processed by: cddbd v1.5.2PL0 Copyright (c) Steve Scherf et al.
# Submitted via: ExactAudioCopy v1.3
#
DISCID=6f084109
DTITLE=Jinx - Second Hand
DYEAR=1997
DGENRE=Pop
TTITLE0=Astro party
TTITLE1=Vikendboj
TTITLE2=Brazil
TTITLE3=Sve se jednom mora vratiti
TTITLE4=Smijem se
TTITLE5=Čuvar močvara i trava
TTITLE6=Do kraja vremena
TTITLE7=Kuke
TTITLE8=Zmija and zmaj
EXTD=
EXTT0=
EXTT1=
EXTT2=
EXTT3=
EXTT4=
EXTT5=
EXTT6=
EXTT7=
EXTT8=
PLAYORDER=
